#N canvas 105 179 1179 606 12;
#X obj 90 69 netreceive -u 9999;
#X obj 187 121 print;
#X floatatom 144 297 5 0 0 0 - - -;
#X floatatom 196 298 5 0 0 0 - - -;
#X floatatom 250 301 5 0 0 0 - - -;
#X floatatom 357 253 5 0 0 0 - - -;
#X floatatom 404 252 5 0 0 0 - - -;
#X floatatom 456 252 5 0 0 0 - - -;
#X floatatom 637 244 5 0 0 0 - - -;
#X floatatom 687 243 5 0 0 0 - - -;
#X floatatom 731 240 5 0 0 0 - - -;
#X obj 90 167 unpack f f f f f f f f f f f f;
#X floatatom 819 226 5 0 0 0 - - -;
#X floatatom 871 225 5 0 0 0 - - -;
#X floatatom 915 222 5 0 0 0 - - -;
#X msg 302 124 1.1 1.2 1.3 1.4 1.5 1.6 1.7 1.8 1.9 1.1 1.11 1.12;
#X obj 805 405 osc~;
#X obj 805 359 mtof;
#X floatatom 805 381 5 0 0 0 - - -;
#X obj 871 307 vsl 15 128 0 1 0 0 empty empty empty 0 -9 0 10 -262144
-1 -1 700 1;
#X obj 805 435 *~;
#X obj 806 539 dac~;
#X obj 808 311 int;
#X floatatom 806 334 5 0 0 0 - - -;
#X text -93 273 Accelerometer including gravity;
#X text 156 278 X;
#X text 206 281 Y;
#X text 262 280 Z;
#X text 650 226 X;
#X text 697 222 Y;
#X text 735 223 Z;
#X text 368 223 X;
#X text 419 230 Y;
#X text 467 234 Z;
#X text 248 255 Accelerometer;
#X text 885 170 X;
#X text 932 170 Y;
#X text 825 173 Z;
#X text 554 247 Gyroscope;
#X text 813 194 alpha;
#X text 871 192 beta;
#X text 916 189 gamma;
#X text 224 67 receive message from phone;
#X obj 235 523 print;
#X floatatom 192 699 5 0 0 0 - - -;
#X floatatom 244 700 5 0 0 0 - - -;
#X floatatom 298 703 5 0 0 0 - - -;
#X floatatom 405 655 5 0 0 0 - - -;
#X floatatom 452 654 5 0 0 0 - - -;
#X floatatom 504 654 5 0 0 0 - - -;
#X floatatom 685 646 5 0 0 0 - - -;
#X floatatom 735 645 5 0 0 0 - - -;
#X floatatom 779 642 5 0 0 0 - - -;
#X obj 138 569 unpack f f f f f f f f f f f f;
#X floatatom 867 628 5 0 0 0 - - -;
#X floatatom 919 627 5 0 0 0 - - -;
#X floatatom 963 624 5 0 0 0 - - -;
#X msg 350 526 1.1 1.2 1.3 1.4 1.5 1.6 1.7 1.8 1.9 1.1 1.11 1.12;
#X obj 853 807 osc~;
#X obj 853 761 mtof;
#X floatatom 853 783 5 0 0 0 - - -;
#X obj 918 713 vsl 15 128 0 1 0 0 empty empty empty 0 -9 0 10 -262144
-1 -1 900 1;
#X obj 853 837 *~;
#X obj 854 941 dac~;
#X obj 856 713 int;
#X floatatom 854 736 5 0 0 0 - - -;
#X text -45 675 Accelerometer including gravity;
#X text 204 680 X;
#X text 254 683 Y;
#X text 310 682 Z;
#X text 698 628 X;
#X text 745 624 Y;
#X text 783 625 Z;
#X text 416 625 X;
#X text 467 632 Y;
#X text 515 636 Z;
#X text 296 657 Accelerometer;
#X text 933 572 X;
#X text 980 572 Y;
#X text 873 575 Z;
#X text 602 649 Gyroscope;
#X text 861 596 alpha;
#X text 919 594 beta;
#X text 964 591 gamma;
#X text 272 469 receive message from phone;
#X obj 138 471 netreceive -u 9998;
#X connect 0 0 1 0;
#X connect 0 0 11 0;
#X connect 11 0 2 0;
#X connect 11 1 3 0;
#X connect 11 2 4 0;
#X connect 11 3 5 0;
#X connect 11 4 6 0;
#X connect 11 5 7 0;
#X connect 11 6 8 0;
#X connect 11 7 9 0;
#X connect 11 8 10 0;
#X connect 11 9 12 0;
#X connect 11 10 13 0;
#X connect 11 11 14 0;
#X connect 12 0 22 0;
#X connect 15 0 11 0;
#X connect 16 0 20 0;
#X connect 17 0 18 0;
#X connect 18 0 16 0;
#X connect 19 0 20 1;
#X connect 20 0 21 1;
#X connect 20 0 21 0;
#X connect 22 0 23 0;
#X connect 23 0 17 0;
#X connect 53 0 44 0;
#X connect 53 1 45 0;
#X connect 53 2 46 0;
#X connect 53 3 47 0;
#X connect 53 4 48 0;
#X connect 53 5 49 0;
#X connect 53 6 50 0;
#X connect 53 7 51 0;
#X connect 53 8 52 0;
#X connect 53 9 54 0;
#X connect 53 10 55 0;
#X connect 53 11 56 0;
#X connect 54 0 64 0;
#X connect 57 0 53 0;
#X connect 58 0 62 0;
#X connect 59 0 60 0;
#X connect 60 0 58 0;
#X connect 61 0 62 1;
#X connect 62 0 63 1;
#X connect 62 0 63 0;
#X connect 64 0 65 0;
#X connect 65 0 59 0;
#X connect 85 0 43 0;
#X connect 85 0 53 0;
